<svg xmlns="http://www.w3.org/2000/svg" xmlns:xlink="http://www.w3.org/1999/xlink" width="37" height="32" viewBox="0 0 37 32">
  <defs>
    <clipPath id="clip-home">
      <rect width="37" height="32"/>
    </clipPath>
  </defs>
  <g id="home" clip-path="url(#clip-home)">
    <g id="Icon_awesome-home" data-name="Icon awesome-home" transform="translate(1 2)">
      <path id="Icon_awesome-home-2" data-name="Icon awesome-home" d="M16.793,9.646,5.75,19.306V29.732a.989.989,0,0,0,.958,1.018l6.712-.018a.99.99,0,0,0,.954-1.018V23.625a.989.989,0,0,1,.958-1.018h3.833a.989.989,0,0,1,.958,1.018v6.084a1.051,1.051,0,0,0,.28.722.931.931,0,0,0,.679.3l6.71.02a.989.989,0,0,0,.958-1.018V19.3L17.709,9.646A.7.7,0,0,0,16.793,9.646Zm17.444,6.566-5.007-4.384V3.017a.742.742,0,0,0-.719-.763H25.156a.742.742,0,0,0-.719.763V7.636L19.075,2.95a2.746,2.746,0,0,0-3.654,0L.26,16.212a.8.8,0,0,0-.1,1.075l1.527,1.972a.707.707,0,0,0,.486.275.691.691,0,0,0,.527-.171L16.793,7.038a.7.7,0,0,1,.916,0L31.8,19.363a.69.69,0,0,0,1.012-.1l1.527-1.972a.8.8,0,0,0,.16-.561.778.778,0,0,0-.262-.516Z" transform="translate(0.001 -2.254)" fill="#f6f6f6"/>
    </g>
  </g>
</svg>
