<svg xmlns="http://www.w3.org/2000/svg" xmlns:xlink="http://www.w3.org/1999/xlink" width="35" height="32" viewBox="0 0 35 32">
  <defs>
    <clipPath id="clip-search">
      <rect width="35" height="32"/>
    </clipPath>
  </defs>
  <g id="search" clip-path="url(#clip-search)">
    <g id="Icon_awesome-search" data-name="Icon awesome-search" transform="translate(2 0.841)">
      <path id="Icon_awesome-search-2" data-name="Icon awesome-search" d="M29.745,26.075,23.872,20.2a1.413,1.413,0,0,0-1-.412h-.96a12.246,12.246,0,1,0-2.12,2.12v.96a1.412,1.412,0,0,0,.412,1l5.872,5.872a1.408,1.408,0,0,0,2,0l1.667-1.667a1.42,1.42,0,0,0,.006-2ZM12.251,19.79a7.539,7.539,0,1,1,7.539-7.539A7.535,7.535,0,0,1,12.251,19.79Z" fill="#f2f2f2"/>
    </g>
  </g>
</svg>
