<svg xmlns="http://www.w3.org/2000/svg" width="35" height="32" viewBox="0 0 35 32">
  <defs>
    <clipPath id="clip-youtube">
      <rect width="35" height="32"/>
    </clipPath>
  </defs>
  <g id="youtube" clip-path="url(#clip-youtube)">
    <g id="Icon_simple-youtube" transform="translate(3.245 3)">
      <path id="Icon_simple-youtube-2" d="M28.312,9.336A4.19,4.19,0,0,0,25.8,6.181c-2.253-.757-11.322-.757-11.322-.757s-9.046-.015-11.322.757A4.19,4.19,0,0,0,.636,9.336a58.893,58.893,0,0,0-.629,8.771,58.89,58.89,0,0,0,.629,8.738A4.19,4.19,0,0,0,3.152,30c2.251.758,11.322.758,11.322.758s9.045,0,11.322-.758a4.19,4.19,0,0,0,2.516-3.155,58.911,58.911,0,0,0,.6-8.738,58.913,58.913,0,0,0-.6-8.771ZM11.58,23.532V12.664l7.548,5.442Z" transform="translate(-0.007 -5.424)" fill="#130f53"/>
    </g>
  </g>
</svg>
