<svg xmlns="http://www.w3.org/2000/svg" xmlns:xlink="http://www.w3.org/1999/xlink" width="35" height="33" viewBox="0 0 35 33">
  <defs>
    <clipPath id="clip-facebook">
      <rect width="35" height="33"/>
    </clipPath>
  </defs>
  <g id="facebook" clip-path="url(#clip-facebook)">
    <g id="Icon_awesome-facebook-square" transform="translate(3.052 4)">
      <path id="Icon_awesome-facebook-square-2" d="M25.469,2.25H3.056A2.9,2.9,0,0,0,0,4.964v19.9a2.9,2.9,0,0,0,3.056,2.714H11.8V18.971H7.784V14.917H11.8v-3.09c0-3.514,2.356-5.456,5.964-5.456a27.276,27.276,0,0,1,3.535.274v3.449H19.3c-1.962,0-2.574,1.081-2.574,2.19v2.632h4.379l-.7,4.054H16.73v8.613h8.739a2.9,2.9,0,0,0,3.056-2.714V4.964A2.9,2.9,0,0,0,25.469,2.25Z" transform="translate(0 -2.25)" fill="#130f53"/>
    </g>
  </g>
</svg>
