<svg xmlns="http://www.w3.org/2000/svg" xmlns:xlink="http://www.w3.org/1999/xlink" width="41" height="29" viewBox="0 0 41 29">
  <defs>
    <clipPath id="clip-mail">
      <rect width="41" height="29"/>
    </clipPath>
  </defs>
  <g id="mail" clip-path="url(#clip-mail)">
    <path id="Icon_zocial-email" d="M.072,24.423V6.046q0-.032.1-.606l10.816,9.252L.2,25.061a2.7,2.7,0,0,1-.128-.638ZM1.508,4.164a1.375,1.375,0,0,1,.542-.1H31.179a1.807,1.807,0,0,1,.574.1L20.906,13.448,19.47,14.6l-2.84,2.329L13.791,14.6l-1.436-1.149ZM1.54,26.306l10.88-10.433,4.211,3.414,4.211-3.414,10.88,10.433a1.532,1.532,0,0,1-.542.1H2.05a1.445,1.445,0,0,1-.51-.1ZM22.278,14.692,33.062,5.44a1.9,1.9,0,0,1,.1.606V24.423a2.445,2.445,0,0,1-.1.638Z" transform="translate(3.928 -1.068)" fill="#416fd8"/>
  </g>
</svg>
